<svg version="1.2" xmlns="http://www.w3.org/2000/svg" viewBox="0 0 200 200" width="200" height="200">
	<title>archlinux-logo-light-scalable</title>
	<style>
		.s0 { fill: #1793d1 } 
		.s1 { fill: #ffffff } 
	</style>
	<g id="layer1">
		<g id="g2424">
			<path id="path2518" fill-rule="evenodd" class="s0" d="m105.8 16.6c-7.4 18.2-11.8 30-20.1 47.6 5.1 5.4 11.3 11.6 21.3 18.6-10.8-4.4-18.2-8.9-23.7-13.5-10.5 22-27 53.3-60.5 113.5 26.3-15.2 46.7-24.6 65.7-28.1-0.8-3.6-1.3-7.4-1.2-11.3v-0.9c0.4-16.8 9.2-29.8 19.6-28.9 10.4 0.8 18.5 15.2 18.1 32.1-0.1 3.2-0.5 6.2-1.1 9.1 18.8 3.7 39 13 65 28-5.1-9.4-9.7-17.9-14.1-26-6.8-5.3-14-12.3-28.6-19.8 10 2.6 17.2 5.6 22.8 9-44.4-82.7-48-93.6-63.2-129.4z"/>
			<g id="text2634">
				<path id="path3660" class="s1" d="m579.5 124.4v-4.7h-1.8v-0.6h4.2v0.6h-1.7v4.7z"/>
				<path id="path3662" class="s1" d="m582.7 124.4v-5.3h1l1.3 3.7q0.1 0.5 0.2 0.8 0.1-0.3 0.3-0.8l1.3-3.7h0.9v5.3h-0.7v-4.5l-1.5 4.5h-0.6l-1.6-4.5v4.5z"/>
			</g>
			<g id="text2638">
				<path id="path2883" class="s1" d="m189.7 168v-4.6h-1.7v-0.6h4.1v0.6h-1.7v4.6z"/>
				<path id="path2885" class="s1" d="m192.8 168v-5.2h1.1l1.2 3.7q0.2 0.5 0.2 0.7 0.1-0.2 0.3-0.8l1.2-3.6h1v5.2h-0.7v-4.3l-1.5 4.3h-0.6l-1.5-4.4v4.4z"/>
			</g>
		</g>
	</g>
</svg>