<svg version="1.2" baseProfile="tiny-ps" xmlns="http://www.w3.org/2000/svg" viewBox="0 0 256 222" width="256" height="222">
	<title>endeavour-logo-sans-logotype-svg</title>
	<style>
		tspan { white-space:pre }
		.s0 { fill: #7f7fff } 
		.s1 { fill: #ff7f7f } 
		.s2 { fill: #7f3fbf } 
	</style>
	<g id="layer1">
		<g id="g3201">
			<path id="path3195" class="s0" d="m148.37 9.37c32.57 32.97 170.79 179.31 56.14 194.67c-80.57 10.79-184.19 6.13-184.19 6.13c0 0 7.71-12.72 17.35-28.55c-1.99-3.5 132.83 18.02 162.39 4.44c63.49-24.94-29.63-145.57-51.68-176.69v0z" />
			<path id="path3197" class="s1" d="m148.12 9.3c0.12-0.02 0.2 0.01 0.25 0.08c-3.05-2.66-103.54 166.68-110.71 172.25c-22.09-3.2-31.78-5.95-31.78-5.95c0 0 134.87-165.37 142.24-166.38l0 0z" />
			<path id="path3199" class="s2" d="m148.25 9.31c0.05 0.01 0.09 0.03 0.12 0.06c25.77 34.04 136.59 179.83 24.92 181.72c-39.44 0.67-135.63-9.47-135.63-9.47c0 0 105.95-173.06 110.59-172.31h0z" />
		</g>
	</g>
</svg>